<?xml version="1.0" standalone="no"?>
<!DOCTYPE svg PUBLIC "-//W3C//DTD SVG 20010904//EN"
 "http://www.w3.org/TR/2001/REC-SVG-20010904/DTD/svg10.dtd">
<svg version="1.0" xmlns="http://www.w3.org/2000/svg"
 width="42.000000pt" height="34.000000pt" viewBox="0 0 42.000000 34.000000"
 preserveAspectRatio="xMidYMid meet">
<metadata>
Created by potrace 1.16, written by Peter Selinger 2001-2019
</metadata>
<g transform="translate(0.000000,34.000000) scale(0.100000,-0.100000)"
fill="#000000" stroke="none">
<path d="M150 329 c-30 -12 -90 -68 -90 -84 0 -9 14 -8 52 1 67 18 143 18 201
0 55 -17 61 -6 21 38 -47 50 -123 69 -184 45z"/>
<path d="M140 229 c-60 -10 -100 -32 -100 -54 0 -8 -9 -19 -21 -25 -16 -9 -18
-14 -8 -26 9 -11 15 -12 25 -3 9 7 14 8 14 1 0 -5 -12 -17 -26 -27 -19 -12
-23 -20 -15 -28 9 -9 17 -8 31 1 11 6 25 12 32 12 7 0 4 -6 -7 -12 -11 -6 -30
-20 -43 -31 -31 -29 -7 -42 29 -16 32 22 55 24 89 4 36 -21 109 -18 152 5 l36
19 34 -23 c32 -21 58 -24 58 -6 0 5 -18 20 -40 33 -22 13 -37 27 -33 30 3 4
14 0 24 -9 11 -10 25 -14 36 -9 16 6 15 9 -9 30 -27 23 -41 48 -15 27 8 -7 18
-8 27 -1 13 8 12 12 -5 27 -11 10 -25 27 -31 37 -21 38 -138 59 -234 44z"/>
</g>
</svg>
