<svg width="99" height="99" viewBox="0 0 99 99" fill="none" xmlns="http://www.w3.org/2000/svg">
<rect x="0.592499" y="0.244141" width="98.3498" height="98.3498" fill="#202020"/>
<path d="M80.1244 29.0387H70.0056V25.7418C70.0056 24.8675 70.0056 22.4451 70.0056 22.4451C70.0056 22.4451 67.5271 22.445 66.6326 22.445H32.9029C32.0083 22.445 29.5299 22.4451 29.5299 22.4451C29.5299 22.4451 29.5299 24.8675 29.5299 25.7418V29.0387H19.411C18.5165 29.0387 16.0384 29.0387 16.0384 29.0387C16.0384 29.0387 16.0381 31.4611 16.0381 32.3355V42.226C16.0381 56.4353 22.1094 65.007 32.2958 65.3037C33.782 67.8158 35.8155 69.9774 38.2521 71.6354C40.6887 73.2934 43.4686 74.4071 46.3948 74.8975V81.7879H37.3775C35.1061 84.3629 35.1061 84.2744 35.1061 88.3816H64.4294C64.4294 84.3854 64.4294 84.3629 62.158 81.7879H53.1407V74.8975C56.0669 74.4071 58.8468 73.2934 61.2834 71.6354C63.7199 69.9774 65.7535 67.8158 67.2397 65.3037C77.3586 64.9741 83.4974 56.4023 83.4974 42.226V32.3355C83.4974 31.4611 83.4974 29.0387 83.4974 29.0387C83.4974 29.0387 81.019 29.0387 80.1244 29.0387ZM22.784 42.226V35.6323H29.5299V58.1496C23.526 55.677 22.784 46.5119 22.784 42.226ZM70.0056 58.1496V35.6323H76.7514V42.226C76.7514 46.5119 76.0094 55.677 70.0056 58.1496Z" fill="#F5E2A0"/>
<circle cx="49.6006" cy="47.6048" r="8.63361" stroke="#202020" stroke-width="4.53348"/>
<rect x="52.7732" y="56.4951" width="4.52784" height="4.24834" rx="0.894388" transform="rotate(-32 52.7732 56.4951)" fill="#202020"/>
<rect x="57.8076" y="52.5674" width="4.52784" height="4.24834" rx="0.894388" transform="rotate(-72 57.8076 52.5674)" fill="#202020"/>
<rect x="59.1382" y="46.3236" width="4.52784" height="4.24834" rx="0.894388" transform="rotate(-112 59.1382 46.3236)" fill="#202020"/>
<rect x="56.1438" y="40.6838" width="4.52784" height="4.24834" rx="0.894388" transform="rotate(-152 56.1438 40.6838)" fill="#202020"/>
<rect x="50.2257" y="38.2883" width="4.52784" height="4.24834" rx="0.894388" transform="rotate(168 50.2257 38.2883)" fill="#202020"/>
<rect x="44.1523" y="40.2576" width="4.52784" height="4.24834" rx="0.894388" transform="rotate(128 44.1523 40.2576)" fill="#202020"/>
<rect x="40.7644" y="45.6704" width="4.52784" height="4.24834" rx="0.894388" transform="rotate(88 40.7644 45.6704)" fill="#202020"/>
<rect x="41.6498" y="51.9927" width="4.52784" height="4.24834" rx="0.894388" transform="rotate(48 41.6498 51.9927)" fill="#202020"/>
<rect x="46.3908" y="56.2681" width="4.52784" height="4.24834" rx="0.894388" transform="rotate(8 46.3908 56.2681)" fill="#202020"/>
</svg>
