<svg width="111" height="114" viewBox="0 0 111 114" fill="none" xmlns="http://www.w3.org/2000/svg">
<rect width="110.118" height="113.647" fill="#F5E2A0"/>
<rect x="6.35294" y="6.35294" width="97.4118" height="100.941" stroke="#101010" stroke-width="12.7059"/>
<path fill-rule="evenodd" clip-rule="evenodd" d="M79.8683 40.9509L64.0739 29.8052C61.9918 28.3378 59.5354 27.5313 56.8568 27.5313L23.7544 27.5313L21.8828 27.5312L21.8828 29.3235L21.8828 40.0772L21.8828 41.8695H23.7544H26.4915L31.9305 46.0925C34.3869 47.9968 37.4398 49.0386 40.598 49.0386L55.5701 49.0386C57.8511 49.0386 59.6407 47.0895 59.2664 44.8492C58.9623 43.0905 57.2311 41.8695 55.3596 41.8695L46.2126 41.8695L44.341 40.0772C44.341 39.0915 45.1832 38.2849 46.2126 38.2849L60.3191 38.2849L74.3157 48.1649C76.3978 49.6323 79.3232 49.2066 80.8587 47.2127C82.3919 45.2188 81.9479 42.4184 79.8683 40.9509ZM29.5444 67.0527L45.3388 78.1985C47.4209 79.6659 49.8773 80.4724 52.5559 80.4724H85.6583H87.5299L87.5299 78.6801V67.9265V66.1342H85.6583H82.9212L77.4821 61.9111C75.0258 60.0068 71.9729 58.9651 68.8147 58.9651H53.8425C51.5616 58.9651 49.772 60.9142 50.1463 63.1545C50.4504 64.9132 52.1816 66.1342 54.0531 66.1342H63.2001L65.0716 67.9265C65.0716 68.9122 64.2295 69.7188 63.2001 69.7188H49.0936L35.097 59.8388C33.0149 58.3714 30.0895 58.797 28.554 60.791C27.0208 62.7849 27.4648 65.5853 29.5444 67.0527Z" fill="#101010"/>
</svg>
