<svg width="111" height="114" viewBox="0 0 111 114" fill="none" xmlns="http://www.w3.org/2000/svg">
<g clip-path="url(#clip0_495_99)">
<rect width="110.118" height="113.647" fill="#F5E2A0"/>
<rect x="6.35319" y="6.35294" width="97.4118" height="100.941" stroke="#101010" stroke-width="12.7059"/>
<path d="M41.9004 79.4943C41.9004 80.9159 41.4291 82.1461 40.4866 83.185C39.5441 84.2238 38.428 84.7433 37.1382 84.7433C35.8485 84.7433 34.7323 84.2238 33.7898 83.185C32.8473 82.1461 32.376 80.9159 32.376 79.4943C32.376 78.0728 32.8473 76.8425 33.7898 75.8037C34.7323 74.7648 35.8485 74.2454 37.1382 74.2454C38.428 74.2454 39.5441 74.7648 40.4866 75.8037C41.4291 76.8425 41.9004 78.0728 41.9004 79.4943ZM75.2356 79.4943C75.2356 80.9159 74.7643 82.1461 73.8218 83.185C72.8793 84.2238 71.7632 84.7433 70.4734 84.7433C69.1837 84.7433 68.0675 84.2238 67.125 83.185C66.1825 82.1461 65.7112 80.9159 65.7112 79.4943C65.7112 78.0728 66.1825 76.8425 67.125 75.8037C68.0675 74.7648 69.1837 74.2454 70.4734 74.2454C71.7632 74.2454 72.8793 74.7648 73.8218 75.8037C74.7643 76.8425 75.2356 78.0728 75.2356 79.4943ZM79.9978 36.1087V57.1044C79.9978 58.4198 79.0562 59.5664 77.8771 59.7289L39.0356 64.7318C39.3581 66.372 39.5193 67.3289 39.5193 67.6023C39.5193 68.0397 39.2217 68.9145 38.6264 70.2267H72.8545C73.4994 70.2267 74.0574 70.4864 74.5287 71.0059C75 71.5253 75.2356 72.1404 75.2356 72.8512C75.2356 73.562 75.186 74.1771 74.7147 74.6965H33.0829C32.283 73.3843 33.9009 69.2849 34.6455 67.2332L28.0603 33.4843H20.4706V28.2354H29.995C32.4129 28.2354 32.4132 28.2354 32.9341 33.4843H79.9978C79.9978 33.4843 79.9978 34.6917 79.9978 36.1087Z" fill="#101010"/>
</g>
<defs>
<clipPath id="clip0_495_99">
<rect width="110.118" height="113.647" fill="white"/>
</clipPath>
</defs>
</svg>
