<svg width="99" height="99" viewBox="0 0 99 99" fill="none" xmlns="http://www.w3.org/2000/svg">
<rect x="0.265575" y="0.500183" width="98.3498" height="98.3498" fill="#202020"/>
<path fill-rule="evenodd" clip-rule="evenodd" d="M90.7272 49.594C70.0007 17.4228 29.3072 16.7568 7.90773 49.5941C29.3072 82.4314 70.0199 81.7653 90.7464 49.5941H62.6851L90.7272 49.594ZM62.6851 49.5941L62.6852 49.6606C62.6852 56.9811 56.6897 62.9155 49.2938 62.9155C41.8979 62.9155 35.9023 56.9811 35.9023 49.6606L35.9025 49.5941C35.9387 42.3043 41.9203 36.4058 49.2938 36.4058C56.6673 36.4058 62.6489 42.3043 62.6851 49.5941ZM53.4033 49.5937C54.6376 49.5937 55.7445 49.0619 56.4958 48.2208C56.5827 48.6654 56.6282 49.1246 56.6282 49.5943C56.6282 53.5672 53.3743 56.7879 49.3604 56.7879C45.3466 56.7879 42.0927 53.5672 42.0927 49.5943C42.0927 45.6214 45.3466 42.4007 49.3604 42.4007C49.8445 42.4007 50.3175 42.4475 50.775 42.5369C49.8766 43.2694 49.3052 44.37 49.3052 45.6007C49.3052 47.8059 51.14 49.5937 53.4033 49.5937Z" fill="#F5E2A0"/>
</svg>
